{"asset":{"generator":"3D Builder","version":"2.0"},"scene":0,"scenes":[{"nodes":[0]}],"nodes":[{"mesh":0,"matrix":[1,0,0,0,0,-1.1920928955078125E-7,-0.99999988079071045,0,0,0.99999988079071045,-1.1920928955078125E-7,0,-0.011216357350349426,0.28909975290298462,-0.20987744629383087,1]}],"meshes":[{"primitives":[{"attributes":{"POSITION":0,"TEXCOORD_0":1},"mode":4,"indices":2,"material":0}]}],"materials":[{"pbrMetallicRoughness":{"baseColorFactor":[1,1,1,1],"metallicFactor":1,"roughnessFactor":1,"baseColorTexture":{"index":0,"texCoord":0},"metallicRoughnessTexture":{"index":1,"texCoord":0}},"alphaMode":"OPAQUE"}],"textures":[{"source":0,"sampler":0},{"source":1,"sampler":0}],"images":[{"uri":"texture_0_6195987693227547908.png"},{"uri":"texture_1_17319628118832143767.png"}],"samplers":[{"magFilter":9729,"wrapS":10497,"wrapT":10497}],"accessors":[{"bufferView":0,"byteOffset":0,"count":8242,"componentType":5126,"type":"VEC3","min":[-0.14170767366886139,-0.35836485028266907,-0.28909981250762939],"max":[0.16414038836956024,-0.061390042304992676,0.2229001522064209]},{"bufferView":1,"byteOffset":0,"count":8242,"componentType":5126,"type":"VEC2"},{"bufferView":2,"byteOffset":0,"count":44937,"componentType":5125,"type":"SCALAR"}],"bufferViews":[{"buffer":0,"byteOffset":0,"byteLength":98904,"byteStride":12,"target":34962},{"buffer":0,"byteOffset":98904,"byteLength":65936,"byteStride":8,"target":34962},{"buffer":0,"byteOffset":164840,"byteLength":179748,"target":34963}],"buffers":[{"byteLength":344588,"uri":"Hearth.bin"}]}